<?xml version="1.0" encoding="utf-8"?>
<!-- Generator: Adobe Illustrator 19.0.0, SVG Export Plug-In . SVG Version: 6.00 Build 0)  -->
<svg version="1.1" id="Layer_1" xmlns="http://www.w3.org/2000/svg" xmlns:xlink="http://www.w3.org/1999/xlink" x="0px" y="0px"
	 viewBox="0 0 342.4 54.3" style="enable-background:new 0 0 342.4 54.3;" xml:space="preserve">
<style type="text/css">
	.st0{fill:#FFFFFF;}
	.st1{fill:#B2A59D;}
	.st2{fill:#00556B;}
	.st3{fill:#83A7C0;}
	.st4{fill:#B0BB5C;}
	.st5{fill:#861D1B;}
	.st6{fill:#F26522;}
	.st7{fill:#E1B233;}
</style>
<g>
	<g>
		<g>
			<g>
				<g>
					<path class="st0" d="M280.9,39.9c-0.9,0-1.6-0.7-1.6-1.6V16c0-0.9,0.7-1.6,1.6-1.6c0.9,0,1.6,0.7,1.6,1.6v22.3
						C282.5,39.2,281.8,39.9,280.9,39.9"/>
					<path class="st0" d="M120.7,39.9c-0.7,0-1.3-0.5-1.5-1.2l-4.9-16.9l-2.3,8.1c-0.2,0.8-1.1,1.3-2,1.1c-0.9-0.2-1.3-1.1-1.1-2
						l3.8-13.5c0.2-0.7,0.8-1.2,1.5-1.2h0c0.7,0,1.3,0.5,1.5,1.2l4.9,17l4.9-17c0.2-0.9,1.1-1.3,2-1.1c0.8,0.2,1.3,1.1,1.1,2
						l-6.4,22.3C122.1,39.4,121.5,39.9,120.7,39.9"/>
					<path class="st0" d="M107.9,39.9c-0.7,0-1.3-0.5-1.5-1.2l-6.5-22.3c-0.2-0.9,0.2-1.7,1.1-2c0.9-0.2,1.7,0.2,2,1.1l6.5,22.3
						c0.3,0.9-0.2,1.7-1.1,2C108.2,39.9,108.1,39.9,107.9,39.9"/>
					<path class="st0" d="M262.9,39.9c-0.7,0-1.3-0.5-1.5-1.2l-4.9-16.9l-2.3,8.1c-0.2,0.8-1.1,1.3-2,1.1c-0.9-0.2-1.4-1.1-1.1-2
						l3.8-13.5c0.2-0.7,0.8-1.2,1.5-1.2h0c0.7,0,1.3,0.5,1.5,1.2l4.9,17l4.9-17c0.2-0.9,1.1-1.3,2-1.1c0.9,0.2,1.3,1.1,1.1,2
						l-6.4,22.3C264.2,39.4,263.6,39.9,262.9,39.9"/>
					<path class="st0" d="M250.1,39.9c-0.7,0-1.3-0.5-1.5-1.2l-6.5-22.3c-0.2-0.9,0.2-1.7,1.1-2c0.9-0.2,1.7,0.2,2,1.1l6.5,22.3
						c0.2,0.9-0.2,1.7-1.1,2C250.4,39.9,250.2,39.9,250.1,39.9"/>
					<path class="st0" d="M154.7,37.7l-9-22.3c-0.2-0.6-0.8-1-1.5-1c-0.7,0-1.2,0.4-1.5,1l-9,22.3c-0.3,0.8,0.1,1.8,0.9,2.1
						c0.8,0.3,1.8-0.1,2.1-0.9l7.5-18.6l4.2,10.4h-5.5c-0.9,0-1.6,0.7-1.6,1.6c0,0.9,0.7,1.6,1.6,1.6h6.8l2,5c0.2,0.6,0.8,1,1.5,1
						c0.2,0,0.4,0,0.6-0.1C154.7,39.4,155.1,38.5,154.7,37.7z"/>
					<path class="st0" d="M176.5,17.6h-16.1c-0.9,0-1.6-0.7-1.6-1.6c0-0.9,0.7-1.6,1.6-1.6h16.1c0.9,0,1.6,0.7,1.6,1.6
						C178.1,16.9,177.4,17.6,176.5,17.6"/>
					<path class="st0" d="M168.5,39.8c-0.9,0-1.6-0.7-1.6-1.6v-17c0-0.9,0.7-1.6,1.6-1.6c0.9,0,1.6,0.7,1.6,1.6v17
						C170.1,39.1,169.3,39.8,168.5,39.8"/>
					<path class="st0" d="M196.7,39.8c-6.8,0-12.4-5.6-12.4-12.4s5.6-12.4,12.4-12.4c3.2,0,6.2,1.2,8.5,3.3c0.6,0.6,0.7,1.6,0.1,2.3
						c-0.6,0.7-1.6,0.7-2.3,0.1c-1.7-1.6-3.9-2.5-6.3-2.5c-5.1,0-9.2,4.1-9.2,9.2c0,5.1,4.1,9.2,9.2,9.2c2.5,0,4.8-1,6.5-2.7
						c0.6-0.6,1.6-0.6,2.3,0c0.6,0.6,0.6,1.6,0,2.3C203.1,38.5,200,39.8,196.7,39.8"/>
					<path class="st0" d="M215.9,39.8c-0.9,0-1.6-0.7-1.6-1.6V16c0-0.9,0.7-1.6,1.6-1.6c0.9,0,1.6,0.7,1.6,1.6v22.2
						C217.5,39.1,216.8,39.8,215.9,39.8"/>
					<path class="st0" d="M231.9,14.4c-0.9,0-1.6,0.7-1.6,1.6v9.5H221c-0.9,0-1.6,0.7-1.6,1.6c0,0.9,0.7,1.6,1.6,1.6h9.3v9.5
						c0,0.9,0.7,1.6,1.6,1.6c0.9,0,1.6-0.7,1.6-1.6V16C233.5,15.1,232.8,14.4,231.9,14.4z"/>
				</g>
				<g>
					<path class="st0" d="M308.4,17.7h-16.1c-0.9,0-1.6-0.7-1.6-1.6c0-0.9,0.7-1.6,1.6-1.6h16.1c0.9,0,1.6,0.7,1.6,1.6
						C310,16.9,309.3,17.7,308.4,17.7"/>
					<path class="st0" d="M300.3,39.8c-0.9,0-1.6-0.7-1.6-1.6v-17c0-0.9,0.7-1.6,1.6-1.6c0.9,0,1.6,0.7,1.6,1.6v17
						C301.9,39.1,301.2,39.8,300.3,39.8"/>
				</g>
			</g>
			<g>
				<path class="st1" d="M31.2,50.6c-0.1,1.9,1.3,3.5,3.2,3.7c1.9,0.1,3.5-1.3,3.7-3.2l3-47.3c0.1-1.9-1.3-3.5-3.2-3.7
					c-1.9-0.1-3.5,1.3-3.7,3.2L31.2,50.6z"/>
				<path class="st2" d="M29.5,50.7c0.1,1.9-1.4,3.5-3.3,3.6c-1.9,0.1-3.5-1.4-3.6-3.3l-2-47.3C20.5,1.7,22,0.1,23.9,0
					c1.9-0.1,3.5,1.4,3.6,3.3L29.5,50.7z"/>
				<path class="st3" d="M17.4,50.9c-0.1,1.9-1.6,3.4-3.6,3.3c-1.9-0.1-3.4-1.7-3.3-3.6l1.5-47.4C12.1,1.4,13.7,0,15.6,0
					C17.5,0.1,19,1.7,19,3.6L17.4,50.9z"/>
				<path class="st4" d="M2,51c0.1,1.9,1.7,3.4,3.6,3.3c1.9-0.1,3.4-1.7,3.3-3.6l-2-47.3C6.8,1.4,5.2-0.1,3.3,0
					C1.4,0.1-0.1,1.7,0,3.6L2,51z"/>
				<path class="st5" d="M49.6,50.8c0,1.9-1.5,3.4-3.5,3.4c-1.9,0-3.4-1.5-3.4-3.4V3.4c0-1.9,1.5-3.4,3.4-3.4c1.9,0,3.5,1.5,3.5,3.4
					V50.8z"/>
				<path class="st6" d="M62.1,50.5c0.2,1.9-1.2,3.6-3.1,3.7c-1.9,0.2-3.6-1.2-3.7-3.1l-4-47.2c-0.2-1.9,1.2-3.6,3.2-3.7
					c1.9-0.2,3.6,1.2,3.7,3.1L62.1,50.5z"/>
				<path class="st7" d="M70.7,50.8c0,1.9-1.5,3.4-3.4,3.4c-1.9,0-3.5-1.5-3.5-3.4V3.4c0-1.9,1.5-3.4,3.5-3.4c1.9,0,3.4,1.5,3.4,3.4
					V50.8z"/>
			</g>
		</g>
	</g>
	<g>
		<path class="st0" d="M318.8,39.8c-0.9,0-1.6-0.7-1.6-1.6V16c0-0.9,0.7-1.6,1.6-1.6c0.9,0,1.6,0.7,1.6,1.6v22.2
			C320.4,39.1,319.7,39.8,318.8,39.8"/>
		<path class="st0" d="M334.9,14.4c-0.9,0-1.6,0.7-1.6,1.6v9.5h-9.3c-0.9,0-1.6,0.7-1.6,1.6c0,0.9,0.7,1.6,1.6,1.6h9.3v9.5
			c0,0.9,0.7,1.6,1.6,1.6c0.9,0,1.6-0.7,1.6-1.6V16C336.5,15.1,335.7,14.4,334.9,14.4z"/>
		<g>
			<path class="st0" d="M340.8,17.6c-0.9,0-1.6-0.7-1.6-1.6c0-0.9,0.7-1.6,1.6-1.6c0.9,0,1.6,0.7,1.6,1.6
				C342.4,16.9,341.7,17.6,340.8,17.6z M340.8,14.7c-0.8,0-1.4,0.6-1.4,1.4c0,0.7,0.6,1.4,1.4,1.4c0.8,0,1.4-0.6,1.4-1.4
				C342.2,15.2,341.6,14.7,340.8,14.7z M341.3,16.9l-0.5-0.7h-0.3v0.7h-0.3v-1.8h0.7c0.3,0,0.6,0.2,0.6,0.6c0,0.4-0.4,0.5-0.5,0.5
				l0.5,0.7H341.3z M341,15.3h-0.5V16h0.5c0.2,0,0.3-0.1,0.3-0.3C341.3,15.4,341.1,15.3,341,15.3z"/>
		</g>
	</g>
</g>
</svg>
